<svg xmlns="http://www.w3.org/2000/svg" version="1.1" viewBox="-5.0 -10.0 110.0 135.0" fill="white">
 <path d="m31 12.5h-2.5v14h-13v39.5c0 13.531 10.969 24.5 24.5 24.5h6c1.3789 0 2.5-1.1211 2.5-2.5s-1.1211-2.5-2.5-2.5h-6c-10.77 0-19.5-8.7305-19.5-19.5v-34.5h22.5c10.77 0 19.5 8.7305 19.5 19.5v3.5c0 1.3789 1.1211 2.5 2.5 2.5s2.5-1.1211 2.5-2.5v-3.5c0-13.531-10.969-24.5-24.5-24.5h-9.5v-9h15c14.91 0 27 12.09 27 27 0 1.3789 1.1211 2.5 2.5 2.5s2.5-1.1211 2.5-2.5c0-17.672-14.328-32-32-32zm0.5 32.5c0-1.3789 1.1211-2.5 2.5-2.5h12c1.3789 0 2.5 1.1211 2.5 2.5s-1.1211 2.5-2.5 2.5h-12c-1.3789 0-2.5-1.1211-2.5-2.5zm2.5 7.5c-1.3789 0-2.5 1.1211-2.5 2.5s1.1211 2.5 2.5 2.5h12c1.3789 0 2.5-1.1211 2.5-2.5s-1.1211-2.5-2.5-2.5zm-2.5 12.5c0-1.3789 1.1211-2.5 2.5-2.5h12c1.3789 0 2.5 1.1211 2.5 2.5s-1.1211 2.5-2.5 2.5h-12c-1.3789 0-2.5-1.1211-2.5-2.5zm49.84-11.77c-0.97656-0.97266-2.5586-0.97266-3.5352 0l-23.574 23.574c-0.46875 0.46875-0.73047 1.1055-0.73047 1.7656v9.4297c0 1.3789 1.1211 2.5 2.5 2.5h9.4297c0.66016 0 1.2969-0.26172 1.7656-0.73047l23.574-23.574c0.97266-0.97656 0.97266-2.5586 0-3.5352zm-22.84 32.27v-5.8945l21.07-21.07 5.8945 5.8945-21.07 21.07z" fill-rule="evenodd"/>
</svg>